<svg xmlns="http://www.w3.org/2000/svg" width="1200" height="630" viewBox="0 0 1200 630">
  <!-- OG image: Larky + cm on dark background, 1200×630 -->
  <rect width="1200" height="630" fill="#0d1117"/>

  <!-- Larky centered, scaled up (4× from 48×50 = 192×200) -->
  <g transform="translate(370,140) scale(4)" shape-rendering="crispEdges">
    <rect x="28" y="2" width="4" height="2" fill="#a371f7"/>
    <rect x="24" y="4" width="12" height="2" fill="#a371f7"/>
    <rect x="20" y="6" width="20" height="2" fill="#a371f7"/>
    <rect x="18" y="8" width="24" height="2" fill="#a371f7"/>
    <rect x="16" y="10" width="28" height="2" fill="#a371f7"/>
    <rect x="16" y="12" width="12" height="2" fill="#a371f7"/>
    <rect x="30" y="12" width="4" height="2" fill="#a371f7"/>
    <rect x="36" y="12" width="8" height="2" fill="#a371f7"/>
    <rect x="16" y="14" width="32" height="2" fill="#a371f7"/>
    <rect x="16" y="16" width="32" height="2" fill="#a371f7"/>
    <rect x="18" y="18" width="24" height="2" fill="#a371f7"/>
    <rect x="22" y="20" width="16" height="2" fill="#a371f7"/>
    <rect x="18" y="22" width="24" height="2" fill="#a371f7"/>
    <rect x="14" y="24" width="28" height="2" fill="#a371f7"/>
    <rect x="10" y="26" width="6" height="2" fill="#a371f7"/>
    <rect x="24" y="26" width="18" height="2" fill="#a371f7"/>
    <rect x="6" y="28" width="8" height="2" fill="#a371f7"/>
    <rect x="24" y="28" width="18" height="2" fill="#a371f7"/>
    <rect x="4" y="30" width="6" height="2" fill="#a371f7"/>
    <rect x="24" y="30" width="16" height="2" fill="#a371f7"/>
    <rect x="4" y="32" width="36" height="2" fill="#a371f7"/>
    <rect x="2" y="34" width="36" height="2" fill="#a371f7"/>
    <rect x="0" y="36" width="36" height="2" fill="#a371f7"/>
    <rect x="0" y="38" width="12" height="2" fill="#a371f7"/>
    <rect x="18" y="38" width="16" height="2" fill="#a371f7"/>
    <rect x="0" y="40" width="8" height="2" fill="#a371f7"/>
    <rect x="20" y="40" width="14" height="2" fill="#a371f7"/>
    <rect x="22" y="42" width="10" height="2" fill="#a371f7"/>
    <rect x="24" y="44" width="4" height="2" fill="#a371f7"/>
    <rect x="30" y="44" width="4" height="2" fill="#a371f7"/>
    <rect x="24" y="46" width="4" height="2" fill="#a371f7"/>
    <rect x="30" y="46" width="4" height="2" fill="#a371f7"/>
    <rect x="22" y="48" width="8" height="2" fill="#a371f7"/>
    <rect x="30" y="48" width="8" height="2" fill="#a371f7"/>
  </g>

  <!-- cm text beside Larky, baseline-aligned with feet, scaled 2× from 5px stroke -->
  <g transform="translate(590,290) scale(2)" shape-rendering="crispEdges">
    <rect x="5" y="0" width="15" height="5" fill="#6e7681"/>
    <rect x="0" y="5" width="5" height="15" fill="#6e7681"/>
    <rect x="5" y="20" width="15" height="5" fill="#6e7681"/>
    <rect x="25" y="0" width="5" height="25" fill="#6e7681"/>
    <rect x="45" y="0" width="5" height="25" fill="#6e7681"/>
    <rect x="30" y="5" width="5" height="5" fill="#6e7681"/>
    <rect x="40" y="5" width="5" height="5" fill="#6e7681"/>
    <rect x="35" y="10" width="5" height="15" fill="#6e7681"/>
  </g>

  <!-- "CalcMark" text -->
  <text x="600" y="520" text-anchor="middle" fill="#8b949e" font-family="system-ui, -apple-system, sans-serif" font-size="32" font-weight="500">calcmark.org</text>
</svg>
